<svg width="135" height="44" viewBox="0 0 135 44" fill="none" xmlns="http://www.w3.org/2000/svg">
<path d="M59.4425 19.125V27.9C58.3425 28.71 57.1675 29.305 55.9175 29.685C54.6775 30.055 53.3475 30.24 51.9275 30.24C50.1575 30.24 48.5525 29.965 47.1125 29.415C45.6825 28.865 44.4575 28.1 43.4375 27.12C42.4275 26.14 41.6475 24.97 41.0975 23.61C40.5475 22.25 40.2725 20.765 40.2725 19.155C40.2725 17.525 40.5375 16.03 41.0675 14.67C41.5975 13.31 42.3475 12.14 43.3175 11.16C44.2975 10.18 45.4825 9.42 46.8725 8.88C48.2625 8.34 49.8225 8.07 51.5525 8.07C52.4325 8.07 53.2525 8.14 54.0125 8.28C54.7825 8.42 55.4925 8.615 56.1425 8.865C56.8025 9.105 57.4025 9.4 57.9425 9.75C58.4825 10.1 58.9775 10.485 59.4275 10.905L58.2725 12.735C58.0925 13.025 57.8575 13.205 57.5675 13.275C57.2775 13.335 56.9625 13.26 56.6225 13.05C56.2925 12.86 55.9625 12.67 55.6325 12.48C55.3025 12.29 54.9325 12.125 54.5225 11.985C54.1225 11.845 53.6675 11.73 53.1575 11.64C52.6575 11.55 52.0775 11.505 51.4175 11.505C50.3475 11.505 49.3775 11.685 48.5075 12.045C47.6475 12.405 46.9125 12.92 46.3025 13.59C45.6925 14.26 45.2225 15.065 44.8925 16.005C44.5625 16.945 44.3975 17.995 44.3975 19.155C44.3975 20.395 44.5725 21.505 44.9225 22.485C45.2825 23.455 45.7825 24.28 46.4225 24.96C47.0725 25.63 47.8525 26.145 48.7625 26.505C49.6725 26.855 50.6875 27.03 51.8075 27.03C52.6075 27.03 53.3225 26.945 53.9525 26.775C54.5825 26.605 55.1975 26.375 55.7975 26.085V22.155H53.0675C52.8075 22.155 52.6025 22.085 52.4525 21.945C52.3125 21.795 52.2425 21.615 52.2425 21.405V19.125H59.4425ZM76.1977 14.61L67.8127 34.23C67.7027 34.49 67.5577 34.685 67.3777 34.815C67.2077 34.955 66.9427 35.025 66.5827 35.025H63.8227L66.7027 28.845L60.4777 14.61H63.7327C64.0227 14.61 64.2477 14.68 64.4077 14.82C64.5777 14.96 64.7027 15.12 64.7827 15.3L68.0527 23.28C68.1627 23.55 68.2527 23.82 68.3227 24.09C68.4027 24.36 68.4777 24.635 68.5477 24.915C68.6377 24.635 68.7277 24.36 68.8177 24.09C68.9077 23.81 69.0077 23.535 69.1177 23.265L72.2077 15.3C72.2877 15.1 72.4177 14.935 72.5977 14.805C72.7877 14.675 72.9977 14.61 73.2277 14.61H76.1977ZM78.038 30V14.61H80.303C80.783 14.61 81.098 14.835 81.248 15.285L81.488 16.425C81.758 16.125 82.038 15.85 82.328 15.6C82.628 15.35 82.943 15.135 83.273 14.955C83.613 14.775 83.973 14.635 84.353 14.535C84.743 14.425 85.168 14.37 85.628 14.37C86.598 14.37 87.393 14.635 88.013 15.165C88.643 15.685 89.113 16.38 89.423 17.25C89.663 16.74 89.963 16.305 90.323 15.945C90.683 15.575 91.078 15.275 91.508 15.045C91.938 14.815 92.393 14.645 92.873 14.535C93.363 14.425 93.853 14.37 94.343 14.37C95.193 14.37 95.948 14.5 96.608 14.76C97.268 15.02 97.823 15.4 98.273 15.9C98.723 16.4 99.063 17.01 99.293 17.73C99.533 18.45 99.653 19.275 99.653 20.205V30H95.948V20.205C95.948 19.225 95.733 18.49 95.303 18C94.873 17.5 94.243 17.25 93.413 17.25C93.033 17.25 92.678 17.315 92.348 17.445C92.028 17.575 91.743 17.765 91.493 18.015C91.253 18.255 91.063 18.56 90.923 18.93C90.783 19.3 90.713 19.725 90.713 20.205V30H86.993V20.205C86.993 19.175 86.783 18.425 86.363 17.955C85.953 17.485 85.348 17.25 84.548 17.25C84.008 17.25 83.503 17.385 83.033 17.655C82.573 17.915 82.143 18.275 81.743 18.735V30H78.038ZM106.88 26.01C107.3 26.52 107.755 26.88 108.245 27.09C108.745 27.3 109.27 27.405 109.82 27.405C110.39 27.405 110.9 27.305 111.35 27.105C111.81 26.895 112.2 26.575 112.52 26.145C112.84 25.705 113.085 25.15 113.255 24.48C113.425 23.8 113.51 22.99 113.51 22.05C113.51 20.36 113.23 19.14 112.67 18.39C112.11 17.63 111.305 17.25 110.255 17.25C109.545 17.25 108.925 17.415 108.395 17.745C107.865 18.065 107.36 18.52 106.88 19.11V26.01ZM106.88 16.5C107.5 15.85 108.185 15.335 108.935 14.955C109.695 14.565 110.56 14.37 111.53 14.37C112.42 14.37 113.22 14.545 113.93 14.895C114.65 15.245 115.26 15.75 115.76 16.41C116.27 17.06 116.66 17.85 116.93 18.78C117.2 19.71 117.335 20.755 117.335 21.915C117.335 23.165 117.18 24.3 116.87 25.32C116.56 26.34 116.115 27.215 115.535 27.945C114.965 28.665 114.275 29.225 113.465 29.625C112.655 30.025 111.755 30.225 110.765 30.225C110.285 30.225 109.85 30.175 109.46 30.075C109.07 29.985 108.71 29.855 108.38 29.685C108.05 29.515 107.745 29.31 107.465 29.07C107.195 28.82 106.935 28.545 106.685 28.245L106.52 29.28C106.46 29.54 106.355 29.725 106.205 29.835C106.065 29.945 105.87 30 105.62 30H103.175V7.71H106.88V16.5ZM128.326 23.43C127.256 23.48 126.356 23.575 125.626 23.715C124.896 23.845 124.311 24.015 123.871 24.225C123.431 24.435 123.116 24.68 122.926 24.96C122.736 25.24 122.641 25.545 122.641 25.875C122.641 26.525 122.831 26.99 123.211 27.27C123.601 27.55 124.106 27.69 124.726 27.69C125.486 27.69 126.141 27.555 126.691 27.285C127.251 27.005 127.796 26.585 128.326 26.025V23.43ZM119.836 16.755C121.606 15.135 123.736 14.325 126.226 14.325C127.126 14.325 127.931 14.475 128.641 14.775C129.351 15.065 129.951 15.475 130.441 16.005C130.931 16.525 131.301 17.15 131.551 17.88C131.811 18.61 131.941 19.41 131.941 20.28V30H130.261C129.911 30 129.641 29.95 129.451 29.85C129.261 29.74 129.111 29.525 129.001 29.205L128.671 28.095C128.281 28.445 127.901 28.755 127.531 29.025C127.161 29.285 126.776 29.505 126.376 29.685C125.976 29.865 125.546 30 125.086 30.09C124.636 30.19 124.136 30.24 123.586 30.24C122.936 30.24 122.336 30.155 121.786 29.985C121.236 29.805 120.761 29.54 120.361 29.19C119.961 28.84 119.651 28.405 119.431 27.885C119.211 27.365 119.101 26.76 119.101 26.07C119.101 25.68 119.166 25.295 119.296 24.915C119.426 24.525 119.636 24.155 119.926 23.805C120.226 23.455 120.611 23.125 121.081 22.815C121.551 22.505 122.126 22.235 122.806 22.005C123.496 21.775 124.296 21.59 125.206 21.45C126.116 21.3 127.156 21.21 128.326 21.18V20.28C128.326 19.25 128.106 18.49 127.666 18C127.226 17.5 126.591 17.25 125.761 17.25C125.161 17.25 124.661 17.32 124.261 17.46C123.871 17.6 123.526 17.76 123.226 17.94C122.926 18.11 122.651 18.265 122.401 18.405C122.161 18.545 121.891 18.615 121.591 18.615C121.331 18.615 121.111 18.55 120.931 18.42C120.751 18.28 120.606 18.12 120.496 17.94L119.836 16.755Z" fill="white"/>
<g filter="url(#filter0_d)">
<g filter="url(#filter1_d)">
<path d="M13.262 15.8041C13.262 24.1626 27.5654 34.0916 19.2336 34.0916C10.9018 34.0916 4.14746 27.3157 4.14746 18.9571C4.14746 10.5985 10.9018 3.8226 19.2336 3.8226C27.5654 3.8226 13.262 7.44552 13.262 15.8041Z" fill="#FA8072"/>
</g>
<g filter="url(#filter2_d)">
<path d="M24.5766 17.7125C24.5766 26.071 38.88 36 30.5482 36C22.2163 36 17.0855 31.0227 12.9476 23.0171C8.54748 14.5039 17.5019 0 25.8337 0C34.1656 0 24.5766 9.35393 24.5766 17.7125Z" fill="#FCD87D"/>
</g>
</g>
<defs>
<filter id="filter0_d" x="0.147461" y="0" width="37.0078" height="44" filterUnits="userSpaceOnUse" color-interpolation-filters="sRGB">
<feFlood flood-opacity="0" result="BackgroundImageFix"/>
<feColorMatrix in="SourceAlpha" type="matrix" values="0 0 0 0 0 0 0 0 0 0 0 0 0 0 0 0 0 0 127 0"/>
<feOffset dy="4"/>
<feGaussianBlur stdDeviation="2"/>
<feColorMatrix type="matrix" values="0 0 0 0 0 0 0 0 0 0 0 0 0 0 0 0 0 0 0.25 0"/>
<feBlend mode="normal" in2="BackgroundImageFix" result="effect1_dropShadow"/>
<feBlend mode="normal" in="SourceGraphic" in2="effect1_dropShadow" result="shape"/>
</filter>
<filter id="filter1_d" x="0.147461" y="3.8226" width="25.6932" height="38.269" filterUnits="userSpaceOnUse" color-interpolation-filters="sRGB">
<feFlood flood-opacity="0" result="BackgroundImageFix"/>
<feColorMatrix in="SourceAlpha" type="matrix" values="0 0 0 0 0 0 0 0 0 0 0 0 0 0 0 0 0 0 127 0"/>
<feOffset dy="4"/>
<feGaussianBlur stdDeviation="2"/>
<feColorMatrix type="matrix" values="0 0 0 0 0 0 0 0 0 0 0 0 0 0 0 0 0 0 0.25 0"/>
<feBlend mode="normal" in2="BackgroundImageFix" result="effect1_dropShadow"/>
<feBlend mode="normal" in="SourceGraphic" in2="effect1_dropShadow" result="shape"/>
</filter>
<filter id="filter2_d" x="7.78796" y="0" width="29.3672" height="44" filterUnits="userSpaceOnUse" color-interpolation-filters="sRGB">
<feFlood flood-opacity="0" result="BackgroundImageFix"/>
<feColorMatrix in="SourceAlpha" type="matrix" values="0 0 0 0 0 0 0 0 0 0 0 0 0 0 0 0 0 0 127 0"/>
<feOffset dy="4"/>
<feGaussianBlur stdDeviation="2"/>
<feColorMatrix type="matrix" values="0 0 0 0 0 0 0 0 0 0 0 0 0 0 0 0 0 0 0.25 0"/>
<feBlend mode="normal" in2="BackgroundImageFix" result="effect1_dropShadow"/>
<feBlend mode="normal" in="SourceGraphic" in2="effect1_dropShadow" result="shape"/>
</filter>
</defs>
</svg>
