<svg width="55" height="66" viewBox="0 0 55 66" fill="none" xmlns="http://www.w3.org/2000/svg">
<g filter="url(#filter0_d)">
<path d="M18.5 25.0615C18.5 38.3163 41.2548 54.0615 28 54.0615C14.7452 54.0615 4 43.3163 4 30.0615C4 16.8067 14.7452 6.06151 28 6.06151C41.2548 6.06151 18.5 11.8067 18.5 25.0615Z" fill="#FA8072"/>
</g>
<g filter="url(#filter1_d)">
<path d="M36.5002 28.0881C36.5002 41.3429 59.2551 57.0881 46.0002 57.0881C32.7454 57.0881 24.5829 49.1952 18.0002 36.5C11.0001 23 25.2453 0 38.5002 0C51.755 0 36.5002 14.8333 36.5002 28.0881Z" fill="#FCD87D"/>
</g>
<defs>
<filter id="filter0_d" x="0" y="6.06152" width="36.1474" height="56" filterUnits="userSpaceOnUse" color-interpolation-filters="sRGB">
<feFlood flood-opacity="0" result="BackgroundImageFix"/>
<feColorMatrix in="SourceAlpha" type="matrix" values="0 0 0 0 0 0 0 0 0 0 0 0 0 0 0 0 0 0 127 0"/>
<feOffset dy="4"/>
<feGaussianBlur stdDeviation="2"/>
<feColorMatrix type="matrix" values="0 0 0 0 0 0 0 0 0 0 0 0 0 0 0 0 0 0 0.25 0"/>
<feBlend mode="normal" in2="BackgroundImageFix" result="effect1_dropShadow"/>
<feBlend mode="normal" in="SourceGraphic" in2="effect1_dropShadow" result="shape"/>
</filter>
<filter id="filter1_d" x="12.1553" y="0" width="41.9924" height="65.0881" filterUnits="userSpaceOnUse" color-interpolation-filters="sRGB">
<feFlood flood-opacity="0" result="BackgroundImageFix"/>
<feColorMatrix in="SourceAlpha" type="matrix" values="0 0 0 0 0 0 0 0 0 0 0 0 0 0 0 0 0 0 127 0"/>
<feOffset dy="4"/>
<feGaussianBlur stdDeviation="2"/>
<feColorMatrix type="matrix" values="0 0 0 0 0 0 0 0 0 0 0 0 0 0 0 0 0 0 0.25 0"/>
<feBlend mode="normal" in2="BackgroundImageFix" result="effect1_dropShadow"/>
<feBlend mode="normal" in="SourceGraphic" in2="effect1_dropShadow" result="shape"/>
</filter>
</defs>
</svg>
